Coordinates
version=1
nRows=17
nColumns=24
inDegrees=yes

Units are S.I. units (second, meters, Newtons, ...)
Angles are in degrees.

endheader
time	pelvis_tilt	pelvis_list	pelvis_rotation	pelvis_tx	pelvis_ty	pelvis_tz	hip_flexion_r	hip_adduction_r	hip_rotation_r	knee_angle_r	ankle_angle_r	subtalar_angle_r	mtp_angle_r	hip_flexion_l	hip_adduction_l	hip_rotation_l	knee_angle_l	ankle_angle_l	subtalar_angle_l	mtp_angle_l	lumbar_extension	lumbar_bending	lumbar_rotation
      4.43000000	     -9.43783495	     -2.17256891	     -2.68153535	     -1.47906235	     -0.00410811	     -0.64351857	      6.14884259	      5.09493012	     -6.75398768	     -9.20626098	      5.54663911	     -9.21781698	     -0.45383039	     33.32204562	     -7.58170286	    -17.74516179	    -52.86071518	     -2.52736034	    -14.44809596	      4.11287538	      5.68362384	      4.72512519	      0.95616231
      4.43500000	     -9.40546158	     -2.10549920	     -2.74937299	     -1.47422615	     -0.00434809	     -0.64324865	      5.71437411	      5.02215253	     -6.85448691	     -9.05826774	      5.76851327	     -8.93021007	     -0.16219190	     33.52577048	     -7.51799638	    -18.16417479	    -51.50390091	     -2.09742886	    -14.39986707	      3.04144810	      5.56952542	      4.61837676	      1.12512328
      4.44000000	     -9.55841935	     -2.07747831	     -2.77780022	     -1.46943828	     -0.00481755	     -0.64304951	      5.48114367	      5.00484375	     -6.82933569	     -8.91244834	      5.90566262	     -8.86894338	     -0.10199845	     33.92971439	     -7.44632871	    -18.40431579	    -50.06852034	     -1.86174063	    -14.32090656	      2.87182776	      5.64522373	      4.55761510	      1.24389415
      4.44500000	     -9.51839179	     -2.02120340	     -2.80190224	     -1.46457045	     -0.00510077	     -0.64293779	      5.03474705	      4.92363497	     -7.00925870	     -8.75793826	      6.11546334	     -8.51264761	      0.30235194	     34.07450976	     -7.33819723	    -18.76275499	    -48.58433805	     -1.37971908	    -14.12125045	      1.56568200	      5.52357060	      4.46471709	      1.38799988
      4.45000000	     -9.69173593	     -2.01775945	     -2.84408412	     -1.45976266	     -0.00566439	     -0.64272317	      4.83306987	      4.93670384	     -6.99579016	     -8.63319581	      6.25798967	     -8.45975603	      0.35715077	     34.44005496	     -7.30929198	    -19.06544260	    -47.02346356	     -1.19417798	    -13.97170932	      1.44033003	      5.62203339	      4.42444280	      1.48779447
      4.45500000	     -9.80807717	     -1.99804324	     -2.89104646	     -1.45491730	     -0.00617667	     -0.64253093	      4.56907467	      4.92313254	     -7.01678326	     -8.51214227	      6.42695592	     -8.32273988	      0.43115403	     34.69639721	     -7.25913304	    -19.40744466	    -45.38210586	     -1.01327619	    -13.75121538	      1.25365439	      5.66384198	      4.36542788	      1.61003665
      4.46000000	     -9.77055935	     -1.97490406	     -2.95113926	     -1.45004373	     -0.00654098	     -0.64238481	      4.14322338	      4.88262010	     -7.19613728	     -8.39834871	      6.64645368	     -7.94360347	      0.67159012	     34.73475224	     -7.20906443	    -19.84950079	    -43.67705905	     -0.73094773	    -13.43236613	      0.67799288	      5.53684640	      4.30348833	      1.78614245
      4.46500000	     -9.94596295	     -1.99887801	     -2.92067786	     -1.44518242	     -0.00718289	     -0.64235569	      3.92758803	      4.90969930	     -7.24501322	     -8.25406357	      6.77340633	     -7.87777980	      0.72850977	     35.02155932	     -7.12403494	    -20.06114295	    -41.93228318	     -0.61029351	    -13.07360371	      0.56220677	      5.64369032	      4.28341492	      1.79908690
      4.47000000	     -9.96706352	     -1.98688928	     -2.98886314	     -1.44028414	     -0.00764509	     -0.64222119	      3.57032435	      4.88396540	     -7.39108406	     -8.15534584	      6.97309574	     -7.52308322	      0.92287979	     35.05666109	     -7.07577335	    -20.49956138	    -40.11088243	     -0.40016418	    -12.53951745	      0.33696882	      5.58144379	      4.23416212	      1.97295501
      4.47500000	    -10.06370145	     -2.00008686	     -2.98915129	     -1.43535041	     -0.00824647	     -0.64221559	      3.27515722	      4.88508511	     -7.50859850	     -8.03043359	      7.15326175	     -7.28926317	      1.07809572	     35.16476514	     -6.98339553	    -20.80968969	    -38.24628582	     -0.23521186	    -11.96718296	      0.28121714	      5.60959623	      4.20517377	      2.03148888
      4.48000000	    -10.23114400	     -2.02671569	     -2.94285324	     -1.43045242	     -0.00893913	     -0.64228339	      3.06497178	      4.90733043	     -7.63353135	     -7.91720139	      7.28005307	     -7.21201787	      1.13903239	     35.34383575	     -6.85989674	    -21.04728895	    -36.34700353	     -0.16725782	    -11.37354038	      0.30436146	      5.70696268	      4.18468610	      2.01029963
      4.48500000	    -10.20780086	     -2.02941805	     -3.00160228	     -1.42547623	     -0.00941576	     -0.64224284	      2.66015023	      4.88278112	     -7.84317871	     -7.83257950	      7.47912836	     -6.77865615	      1.36339650	     35.22988515	     -6.79003369	    -21.50313231	    -34.39221206	      0.01605591	    -10.50535720	      0.62955155	      5.60125441	      4.14862434	      2.18991902
      4.49000000	    -10.25526522	     -2.03660521	     -3.00257893	     -1.42046786	     -0.01000342	     -0.64232125	      2.32325432	      4.86193517	     -8.03124967	     -7.73756913	      7.64860930	     -6.46500503	      1.60728238	     35.18853987	     -6.66275035	    -21.84781466	    -32.41348824	      0.09654488	     -9.65508926	      1.16025318	      5.58113638	      4.11343668	      2.25956968
      4.49500000	    -10.24537650	     -2.01513822	     -2.99729793	     -1.41537827	     -0.01052942	     -0.64244455	      1.90574300	      4.79778891	     -8.23489646	     -7.60641335	      7.79714565	     -6.10453148	      2.08855193	     35.03757100	     -6.48099362	    -22.19188097	    -30.34568468	     -0.12505468	     -8.96515200	      2.54898021	      5.50985957	      4.04398717	      2.27712334
      4.50000000	    -10.38905958	     -2.08242537	     -3.02608627	     -1.41035230	     -0.01127611	     -0.64249944	      1.68695139	      4.85462646	     -8.38060385	     -7.54467799	      7.91851365	     -5.88802963	      2.16914266	     35.10196653	     -6.43590636	    -22.53853921	    -28.45874946	      0.08431282	     -7.83732874	      3.04605259	      5.59069322	      4.07370969	      2.35253239
      4.50500000	    -10.31670729	     -2.02072782	     -3.03120326	     -1.40518676	     -0.01171751	     -0.64264600	      1.21860033	      4.73790996	     -8.57095491	     -7.46012007	      8.07784481	     -5.51428454	      2.46364539	     34.83213435	     -6.19945813	    -22.90296218	    -26.37371261	     -0.25343879	     -7.10024400	      4.83461372	      5.46121997	      3.95730295	      2.41530606
      4.51000000	    -10.41314690	     -2.03845095	     -3.06349938	     -1.40005019	     -0.01238507	     -0.64280532	      0.95461635	      4.72015439	     -8.69063146	     -7.42385660	      8.21565015	     -5.21914507	      2.52621861	     34.80800664	     -6.07902886	    -23.24582465	    -24.52889692	     -0.02849702	     -5.93496817	      5.37966322	      5.50680345	      3.94449552	      2.49279968
